HIERARCHY
ROOT Hips
{
	OFFSET 0.000000 0.000000 0.000000
	CHANNELS 6 Xposition Yposition Zposition Zrotation Yrotation Xrotation 
	JOINT LHipJoint
	{
		OFFSET 0.000000 0.000000 0.000000
		CHANNELS 3 Zrotation Yrotation Xrotation
		JOINT LeftUpLeg
		{
			OFFSET 1.363060 -1.794630 0.839290
			CHANNELS 3 Zrotation Yrotation Xrotation
			JOINT LeftLeg
			{
				OFFSET 2.448110 -6.726130 0.000000
				CHANNELS 3 Zrotation Yrotation Xrotation
				JOINT LeftFoot
				{
					OFFSET 2.562200 -7.039590 0.000000
					CHANNELS 3 Zrotation Yrotation Xrotation
					JOINT LeftToeBase
					{
						OFFSET 0.157640 -0.433110 2.322550
						CHANNELS 3 Zrotation Yrotation Xrotation
						End Site
						{
							OFFSET 0.000000 0.000000 0.000000
						}
					}
				}
			}
		}
	}
	JOINT RHipJoint
	{
		OFFSET 0.000000 0.000000 0.000000
		CHANNELS 3 Zrotation Yrotation Xrotation
		JOINT RightUpLeg
		{
			OFFSET -1.305520 -1.794630 0.839290
			CHANNELS 3 Zrotation Yrotation Xrotation
			JOINT RightLeg
			{
				OFFSET -2.542530 -6.985550 0.000000
				CHANNELS 3 Zrotation Yrotation Xrotation
				JOINT RightFoot
				{
					OFFSET -2.568260 -7.056230 0.000000
					CHANNELS 3 Zrotation Yrotation Xrotation
					JOINT RightToeBase
					{
						OFFSET -0.164730 -0.452590 2.363150
						CHANNELS 3 Zrotation Yrotation Xrotation
						End Site
						{
							OFFSET 0.000000 0.000000 0.000000
						}
					}
				}
			}
		}
	}
	JOINT LowerBack
	{
		OFFSET 0.000000 0.000000 0.000000
		CHANNELS 3 Zrotation Yrotation Xrotation
		JOINT Spine
		{
			OFFSET 0.028270 2.035590 -0.193380
			CHANNELS 3 Zrotation Yrotation Xrotation
			JOINT Spine1
			{
				OFFSET 0.056720 2.048850 -0.042750
				CHANNELS 3 Zrotation Yrotation Xrotation
				JOINT Neck
				{
					OFFSET 0.000000 0.000000 0.000000
					CHANNELS 3 Zrotation Yrotation Xrotation
					JOINT Neck1
					{
						OFFSET -0.054170 1.746240 0.172020
						CHANNELS 3 Zrotation Yrotation Xrotation
						JOINT Head
						{
							OFFSET 0.104070 1.761360 -0.123970
							CHANNELS 3 Zrotation Yrotation Xrotation
							End Site
							{
								OFFSET 0.000000 0.000000 0.000000
							}
						}
					}
				}
				JOINT LeftShoulder
				{
					OFFSET 0.000000 0.000000 0.000000
					CHANNELS 3 Zrotation Yrotation Xrotation
					JOINT LeftArm
					{
						OFFSET 3.362410 1.200890 -0.311210
						CHANNELS 3 Zrotation Yrotation Xrotation
						JOINT LeftForeArm
						{
							OFFSET 4.983000 -0.000000 -0.000000
							CHANNELS 3 Zrotation Yrotation Xrotation
							JOINT LeftHand
							{
								OFFSET 3.483560 -0.000000 -0.000000
								CHANNELS 3 Zrotation Yrotation Xrotation
								JOINT LeftFingerBase
								{
									OFFSET 0.000000 0.000000 0.000000
									CHANNELS 3 Zrotation Yrotation Xrotation
									JOINT LeftHandIndex1
									{
										OFFSET 0.715260 -0.000000 -0.000000
										CHANNELS 3 Zrotation Yrotation Xrotation
										End Site
										{
											OFFSET 0.000000 0.000000 0.000000
										}
									}
								}
								JOINT LThumb
								{
									OFFSET 0.000000 0.000000 0.000000
									CHANNELS 3 Zrotation Yrotation Xrotation
									End Site
									{
										OFFSET 0.000000 0.000000 0.000000
									}
								}
							}
						}
					}
				}
				JOINT RightShoulder
				{
					OFFSET 0.000000 0.000000 0.000000
					CHANNELS 3 Zrotation Yrotation Xrotation
					JOINT RightArm
					{
						OFFSET -3.136600 1.374050 -0.404650
						CHANNELS 3 Zrotation Yrotation Xrotation
						JOINT RightForeArm
						{
							OFFSET -5.241900 -0.000000 -0.000000
							CHANNELS 3 Zrotation Yrotation Xrotation
							JOINT RightHand
							{
								OFFSET -3.444170 -0.000000 -0.000000
								CHANNELS 3 Zrotation Yrotation Xrotation
								JOINT RightFingerBase
								{
									OFFSET 0.000000 0.000000 0.000000
									CHANNELS 3 Zrotation Yrotation Xrotation
									JOINT RightHandIndex1
									{
										OFFSET -0.622530 -0.000000 -0.000000
										CHANNELS 3 Zrotation Yrotation Xrotation
										End Site
										{
											OFFSET 0.000000 0.000000 0.000000
										}
									}
								}
								JOINT RThumb
								{
									OFFSET 0.000000 0.000000 0.000000
									CHANNELS 3 Zrotation Yrotation Xrotation
									End Site
									{
										OFFSET 0.000000 0.000000 0.000000
									}
								}
							}
						}
					}
				}
			}
		}
	}
}
MOTION
Frames: 8
Frame Time: 0.008333
-0.040466 18.033660 -5.265207 -6.173762 -3.660361 1.431343 0.510944 4.516005 2.899615 -8.100026 -10.969918 -31.589408 3.110891 12.130012 37.133027 -1.035286 5.350183 0.320889 0.032200 -1.158700 -3.185500 1.385412 -5.211534 5.129944 29.582899 13.114339 -4.012930 -1.318096 -6.037049 25.109593 0.051477 -1.543637 -3.603552 -0.100200 -2.041300 5.619800 4.124507 1.652828 3.487409 4.880120 2.492986 7.203444 -1.161576 1.329429 -6.050940 -4.470021 -3.334385 -14.497662 1.892720 -3.757485 13.374120 -0.584600 -1.727400 7.255300 -7.059202 2.742953 -1.381960 -80.618440 7.011280 26.074949 16.735326 -27.079889 -4.129781 -0.144572 -0.625167 -1.133593 23.703572 27.579104 11.814800 -7.125000 0.000000 0.000000 -7.823800 60.215800 -2.914600 10.821041 -1.989405 -2.610252 73.061532 2.488872 16.902959 -14.125570 27.349475 -4.043288 0.882992 -0.061747 -0.602123 -17.225859 18.938172 -6.052100 7.125000 0.000000 0.000000 6.554700 -10.252200 5.319300
-0.039874 18.028862 -5.173976 -6.267860 -3.761753 1.522478 0.469901 4.491651 2.862207 -7.772762 -11.147233 -31.569492 2.821015 11.826553 35.983812 -1.095185 5.590459 0.255305 0.027969 -1.078113 -2.963705 1.410184 -5.226301 5.166763 29.651366 13.070400 -3.570615 -1.236046 -5.891805 24.676461 0.071337 -1.595955 -3.596078 -0.086317 -1.891630 5.206356 4.163017 1.691351 3.439138 4.906287 2.543180 7.140781 -1.175119 1.357033 -6.051353 -4.478640 -3.288939 -14.370060 1.809286 -3.700860 13.250167 -0.600069 -1.712261 7.201091 -7.063581 2.737502 -1.381038 -80.677755 7.117691 25.764281 16.568012 -26.855998 -4.052454 -0.152196 -0.621567 -1.064792 23.968159 27.168088 11.803892 -7.125000 0.000000 0.000000 -7.304714 59.854251 -2.659222 10.821039 -1.991916 -2.608283 73.015777 2.620176 17.065758 -14.171336 27.411172 -4.065191 0.877412 -0.078332 -0.762393 -16.875964 19.351493 -6.054215 7.125000 0.000000 0.000000 6.807831 -9.850259 5.584528
-0.039251 18.027235 -5.080568 -6.407690 -3.887265 1.592255 0.430309 4.471147 2.825051 -7.385761 -11.357399 -31.510664 2.537271 11.516762 34.823796 -1.191357 5.957814 0.198178 0.020742 -0.912118 -2.507076 1.432875 -5.242122 5.203928 29.776480 13.063167 -3.070749 -1.160991 -5.752543 24.269205 0.095418 -1.667211 -3.632169 -0.078652 -1.808843 4.977679 4.241526 1.741627 3.430337 4.950033 2.613748 7.079760 -1.207080 1.392379 -6.072679 -4.542855 -3.262430 -14.296481 1.820068 -3.660151 13.199589 -0.583225 -1.696864 7.176876 -7.066543 2.739357 -1.380280 -80.729162 7.244240 25.508962 16.422754 -26.664553 -3.987171 -0.162912 -0.616646 -0.890213 24.371772 26.677870 11.832354 -7.125000 0.000000 0.000000 -6.598637 59.440510 -2.338571 10.818850 -1.989810 -2.605155 72.986160 2.696622 17.221200 -14.237294 27.499068 -4.092081 0.877954 -0.101466 -0.821724 -16.710172 19.958100 -6.181335 7.125000 0.000000 0.000000 6.949166 -9.224244 5.789123
-0.038594 18.028944 -4.984868 -6.595629 -4.038148 1.639564 0.392245 4.454692 2.788159 -6.935917 -11.602122 -31.410903 2.259976 11.200307 33.652416 -1.325689 6.458851 0.149946 0.010363 -0.656277 -1.803414 1.453379 -5.259051 5.241455 29.961184 13.094547 -2.510342 -1.093292 -5.619574 23.889170 0.123941 -1.758388 -3.714086 -0.077528 -1.796415 4.943369 4.362112 1.804266 3.463056 5.012272 2.705749 7.020467 -1.258415 1.435869 -6.116003 -4.665555 -3.255842 -14.279732 1.929960 -3.636184 13.226197 -0.532387 -1.681197 7.184214 -7.068013 2.748898 -1.379695 -80.772251 7.391973 25.311865 16.300699 -26.507241 -3.934558 -0.176882 -0.610335 -0.604362 24.921633 26.104333 11.902231 -7.125000 0.000000 0.000000 -5.695855 58.971864 -1.949256 10.814360 -1.982847 -2.600810 72.973519 2.715362 17.368901 -14.324492 27.614522 -4.124219 0.884936 -0.131491 -0.774873 -16.738046 20.768033 -6.439953 7.125000 0.000000 0.000000 6.972899 -8.362516 5.929935
-0.035309 18.030268 -4.886733 -6.681126 -4.148973 1.741939 0.342744 4.431323 2.742633 -6.600880 -11.907108 -31.443604 1.984517 10.866740 32.440257 -1.506157 7.109143 0.252334 0.004881 -0.418800 -1.150721 1.467527 -5.267628 5.281480 29.997683 13.030796 -2.072432 -1.024846 -5.489457 23.513869 0.126439 -1.751375 -3.678836 -0.088841 -1.920331 5.285553 4.546614 1.905066 3.289211 4.872760 2.841541 7.086676 -1.417853 1.506150 -5.952912 -4.597045 -3.320500 -14.537500 2.023075 -3.719171 13.357584 -0.528587 -1.704383 7.261271 -7.064205 2.763368 -1.386388 -80.639062 7.397603 25.416080 16.220548 -26.402143 -3.900122 -0.178343 -0.605203 -0.615245 24.954124 25.747245 11.774356 -7.125000 0.000000 0.000000 -5.499347 58.601225 -1.833275 10.813349 -1.965703 -2.580773 73.103881 3.078083 17.225833 -14.315723 27.584369 -4.110796 0.885212 -0.161437 -0.693282 -16.585506 21.437261 -6.581556 7.125000 0.000000 0.000000 7.111778 -7.669930 6.148585
-0.032504 18.028849 -4.789841 -6.759987 -4.261318 1.843270 0.295167 4.404588 2.697151 -6.287612 -12.140139 -31.492878 1.706026 10.521582 31.205090 -1.648182 7.620386 0.403375 0.002305 -0.311123 -0.854821 1.483035 -5.277386 5.322012 30.027416 12.972097 -1.640385 -0.954959 -5.356774 23.128612 0.139920 -1.772972 -3.608478 -0.094000 -1.977415 5.443195 4.677759 1.997121 3.103531 4.772735 2.959954 7.140616 -1.528665 1.570974 -5.791524 -4.511707 -3.351660 -14.665031 2.032351 -3.767317 13.406370 -0.545771 -1.720241 7.294415 -7.065380 2.768600 -1.392282 -80.568733 7.367612 25.401872 16.091442 -26.226951 -3.840194 -0.178502 -0.606195 -0.615968 24.885914 25.812038 11.764499 -7.125000 0.000000 0.000000 -5.605884 58.653385 -1.877877 10.815011 -1.953761 -2.562751 73.175837 3.477362 17.121456 -14.257045 27.487520 -4.074809 0.884321 -0.186631 -0.621592 -16.413240 21.958883 -6.668745 7.125000 0.000000 0.000000 7.254777 -7.135954 6.350227
-0.030335 18.024249 -4.694469 -6.834217 -4.376646 1.941720 0.250176 4.374142 2.651984 -5.996219 -12.287562 -31.557445 1.423949 10.163445 29.944368 -1.744048 7.965211 0.606513 0.002967 -0.354028 -0.972825 1.500319 -5.288772 5.363060 30.053754 12.922155 -1.211460 -0.883416 -5.221017 22.731620 0.166976 -1.830851 -3.500786 -0.091621 -1.952559 5.374574 4.744841 2.077841 2.910315 4.724789 3.056807 7.176476 -1.579588 1.628635 -5.638364 -4.412555 -3.341660 -14.632615 1.944512 -3.771658 13.355807 -0.585965 -1.726389 7.274318 -7.072520 2.762927 -1.397024 -80.576929 7.300442 25.240662 15.904068 -25.968563 -3.750034 -0.177524 -0.614282 -0.595887 24.716097 26.361517 11.898038 -7.125000 0.000000 0.000000 -6.043921 59.194882 -2.101193 10.819680 -1.948182 -2.547549 73.175461 3.908805 17.070926 -14.143157 27.317416 -4.013927 0.882274 -0.206293 -0.562479 -16.223461 22.312891 -6.696114 7.125000 0.000000 0.000000 7.399093 -6.781545 6.529712
-0.027791 18.022081 -4.599846 -6.885637 -4.485231 2.004210 0.192860 4.350142 2.611725 -5.700444 -12.475728 -31.479738 1.140587 9.761569 28.615002 -1.829758 8.264170 0.796816 0.005322 -0.463334 -1.273214 1.518146 -5.303390 5.401902 30.055156 12.873995 -0.794451 -0.826269 -5.112754 22.413640 0.170509 -1.833567 -3.486644 -0.085036 -1.880254 5.174970 4.790607 2.146928 2.888369 4.667528 3.149642 7.125506 -1.634227 1.675916 -5.636858 -4.311720 -3.365074 -14.488470 1.855367 -3.835563 13.197940 -0.631494 -1.763855 7.203823 -7.075850 2.755222 -1.397186 -80.555794 7.296177 25.154230 15.611632 -25.569879 -3.622778 -0.193794 -0.604324 -0.882571 25.509647 25.241692 11.852959 -7.125000 0.000000 0.000000 -4.667460 58.194141 -1.529508 10.825234 -1.954192 -2.542517 73.219575 4.121476 17.022054 -14.097074 27.242033 -3.982303 0.889091 -0.220893 -0.381341 -16.439510 22.634306 -6.882709 7.125000 0.000000 0.000000 7.281065 -6.413516 6.475411
